<svg xmlns="http://www.w3.org/2000/svg" xmlns:xlink="http://www.w3.org/1999/xlink" xml:space="preserve" version="1.1" style="shape-rendering:geometricPrecision;text-rendering:geometricPrecision;image-rendering:optimizeQuality;" viewBox="0 0 342 272.5" x="0px" y="0px" fill-rule="evenodd" clip-rule="evenodd"><defs><style type="text/css">
   
    .fil0 {fill:black;fill-rule:nonzero}
   
  </style></defs><g><path class="fil0" d="M342 0l0 218 -342 0 0 -218 342 0zm-322 184l87 -88c-20,-16 -63,-49 -87,-67l0 155zm21 -164c30,23 60,46 90,69 43,33 36,36 81,0 29,-24 59,-46 90,-69l-261 0zm281 9c-29,22 -58,44 -87,67l87 88 0 -155zm-13 169l-90 -90c-44,35 -52,35 -96,0l-90 90 276 0z"/></g><text x="0" y="233" fill="#000000" font-size="5px" font-weight="bold" font-family="'Helvetica Neue', Helvetica, Arial-Unicode, Arial, Sans-serif">Created by SELicon</text><text x="0" y="238" fill="#000000" font-size="5px" font-weight="bold" font-family="'Helvetica Neue', Helvetica, Arial-Unicode, Arial, Sans-serif">from the Noun Project</text></svg>